<svg id="visual" viewBox="0 0 900 600" width="900" height="600" xmlns="http://www.w3.org/2000/svg" xmlns:xlink="http://www.w3.org/1999/xlink" version="1.1"><rect x="0" y="0" width="900" height="600" fill="#cbd5e1"></rect><defs><linearGradient id="grad1_0" x1="33.3%" y1="100%" x2="100%" y2="0%"><stop offset="20%" stop-color="#cbd5e1" stop-opacity="1"></stop><stop offset="80%" stop-color="#cbd5e1" stop-opacity="1"></stop></linearGradient></defs><defs><linearGradient id="grad2_0" x1="0%" y1="100%" x2="66.7%" y2="0%"><stop offset="20%" stop-color="#cbd5e1" stop-opacity="1"></stop><stop offset="80%" stop-color="#cbd5e1" stop-opacity="1"></stop></linearGradient></defs><g transform="translate(900, 600)"><path d="M-270.4 0C-262.9 -35.9 -255.4 -71.7 -237.4 -98.3C-219.5 -125 -191.2 -142.4 -169 -169C-146.8 -195.6 -130.6 -231.4 -103.5 -249.8C-76.3 -268.3 -38.2 -269.3 0 -270.4L0 0Z" fill="#312e81"></path></g><g transform="translate(0, 0)"><path d="M270.4 0C241.5 25.7 212.5 51.5 201.4 83.4C190.3 115.4 197.1 153.5 183.8 183.8C170.6 214.2 137.5 236.7 103.5 249.8C69.5 263 34.8 266.7 0 270.4L0 0Z" fill="#312e81"></path></g></svg>